<svg type="fill" width="64" height="44" viewBox="0 0 64 44"><path d="M24.4633 26.7493C24.9806 27.2241 25.2629 27.8596 25.3066 28.5139C25.3503 29.1765 25.1448 29.858 24.6865 30.4072C25.1283 30.0553 25.6645 29.8734 26.2078 29.858C26.8586 29.8391 27.5212 30.06 28.0397 30.5112C28.0468 30.5171 28.0704 30.5395 28.1082 30.575L27.6724 31.0427L28.1106 30.5738C28.1295 30.5915 28.146 30.6104 28.1625 30.6293C28.6563 31.1171 28.909 31.749 28.9303 32.3939C28.9503 32.9785 28.7791 33.5714 28.4236 34.0734C28.733 33.9128 29.0732 33.823 29.4169 33.8065C30.0204 33.7758 30.6417 33.9683 31.1342 34.3793C31.159 34.3994 31.1815 34.4195 31.2016 34.4372C31.7047 34.8872 31.9705 35.492 32.0047 36.1132C32.039 36.7368 31.8394 37.3782 31.4082 37.8943L30.2496 39.2845C30.474 39.4203 30.7008 39.5597 30.9287 39.7003C33.2898 41.1554 35.9331 42.7842 37.9103 40.4219L33.148 36.8337L34.3055 35.2994L39.4257 39.1581L39.8851 39.0506L39.9761 39.0353C40.6245 38.9479 41.1206 38.7022 41.4784 38.3124C41.7702 37.9935 41.9899 37.5648 42.1422 37.0345L35.6685 32.6702L36.7445 31.0757L43.51 35.6372C44.3072 35.4317 44.932 35.1364 45.3844 34.7514C45.7222 34.4644 45.9691 34.1171 46.1261 33.7084L37.9918 27.8891L39.1044 26.3253L47.5884 32.395C48.1199 32.3856 48.5758 32.2273 48.9407 31.9722C49.2667 31.7442 49.5313 31.4348 49.7226 31.0793C49.9175 30.7179 50.0345 30.3127 50.0628 29.9005C50.1018 29.3312 49.973 28.756 49.647 28.2741C49.5301 28.2316 49.4203 28.1655 49.3258 28.0781C46.5797 25.8032 43.8915 23.7587 41.0863 21.9882C38.3249 20.2472 35.4347 18.7591 32.2386 17.5614C31.7401 17.5779 31.309 17.5744 30.9358 17.5708C29.7039 17.559 29.4169 17.5567 28.5003 19.3531C27.8177 20.689 26.9235 21.6894 25.7814 22.2386C24.6983 22.7595 23.4381 22.8575 21.9794 22.4335C19.8203 21.8063 19.3148 21.2902 19.6951 19.9827C19.799 19.6236 19.9951 19.2728 20.2526 18.8122C20.3199 18.6917 20.392 18.5606 20.5703 18.2264C21.6888 16.1204 22.6656 14.4243 23.6211 13.0661C22.6243 12.9515 21.8223 12.7897 21.0357 12.5499C20.1652 12.2853 19.3597 11.9405 18.364 11.4668L11.5123 23.8012L14.2183 26.6005L15.2482 25.4123C15.7183 24.8713 16.3608 24.5572 17.0246 24.4946C17.6872 24.432 18.3699 24.6174 18.9215 25.0745C18.9321 25.0827 18.9262 25.0792 18.9663 25.1146C19.4919 25.5705 19.7979 26.2001 19.8616 26.8497C19.9065 27.3021 19.8345 27.7651 19.6384 28.1855L20.6849 26.9595L20.6837 26.9584C20.6896 26.9513 20.6967 26.9442 20.7026 26.9371V26.9359C20.7168 26.9194 20.7321 26.904 20.7487 26.8887C21.2187 26.3772 21.8518 26.0985 22.5003 26.0572C23.1652 26.0146 23.8491 26.2213 24.3912 26.6843L24.3924 26.6832C24.4007 26.6902 24.4078 26.6973 24.4148 26.7032C24.4326 26.7174 24.4479 26.7328 24.4633 26.7493ZM29.007 40.7751L27.8094 42.2114C27.7905 42.2338 27.7728 42.2551 27.7551 42.274C27.3181 42.7629 26.718 43.0216 26.1039 43.0523C25.5015 43.0818 24.8802 42.8905 24.3865 42.4783C24.3629 42.4582 24.3405 42.4393 24.3204 42.4216C23.8172 41.9704 23.5503 41.3669 23.516 40.7444C23.4901 40.272 23.5987 39.7889 23.842 39.3578L23.7145 39.5031C23.6991 39.522 23.7109 39.5054 23.6531 39.568C23.1723 40.0806 22.5251 40.344 21.8672 40.3617C21.2164 40.3806 20.5526 40.1598 20.0341 39.7086C20.0211 39.6968 20.0081 39.6849 19.9951 39.672C19.9833 39.6613 19.9739 39.6519 19.9644 39.6436L19.9632 39.6448C19.9455 39.6283 19.9278 39.6094 19.9125 39.5905C19.4188 39.1027 19.1648 38.4708 19.1436 37.8259C19.1294 37.3806 19.225 36.9294 19.4294 36.5184C18.99 36.8951 18.4491 37.103 17.8963 37.1385C17.2325 37.181 16.5486 36.9731 16.0053 36.5101L16.0041 36.5113C15.9971 36.5054 15.9888 36.4983 15.9817 36.4912C15.9652 36.477 15.9486 36.4617 15.9333 36.4463C15.4171 35.9715 15.1337 35.3349 15.0911 34.6817C15.0463 34.0097 15.2565 33.3187 15.7289 32.766L16.0939 32.3372C15.6852 32.6549 15.201 32.8415 14.7061 32.8888C14.0435 32.9514 13.3608 32.7648 12.8092 32.3089H12.808C12.7939 32.2971 12.7797 32.2841 12.7655 32.2711L12.7632 32.2687C12.2387 31.8128 11.9328 31.1833 11.8691 30.5336C11.8041 29.8781 11.9848 29.2013 12.4324 28.6592C12.4443 28.6439 12.4573 28.6297 12.4702 28.6167L12.4714 28.6155L12.9557 28.0569L10.0525 25.0521L8.87137 27.0813L8.86783 27.0883L8.8513 27.1155L8.84421 27.1238C8.45326 27.7663 7.83672 28.188 7.15639 28.3521C6.48197 28.5151 5.74259 28.4277 5.10479 28.0557L5.0977 28.0486L5.06936 28.032L5.06109 28.0273L1.32522 25.7619C0.67324 25.3663 0.248037 24.7462 0.0803171 24.0611C-0.0874019 23.3784 0.00236342 22.6296 0.381502 21.9788L12.221 1.64472L12.2245 1.63645L12.2411 1.60929L12.2482 1.6022C12.6379 0.958493 13.2557 0.538012 13.936 0.373842C14.6104 0.210848 15.3486 0.29825 15.9876 0.670302L15.9947 0.673845L16.023 0.690381L16.0301 0.697468L19.7672 2.96403C20.418 3.35852 20.8443 3.97861 21.0121 4.66366C21.1786 5.34753 21.0888 6.09517 20.7097 6.74715L19.0207 9.64915C20.0353 10.1358 20.816 10.4795 21.592 10.7157C22.5251 11.0003 23.5278 11.1586 25.0267 11.2649L25.0231 11.3027C28.6031 7.41684 32.6933 7.72038 43.4757 8.52118L43.9919 8.56016L43.2903 7.35424C42.9112 6.70344 42.8214 5.95462 42.9879 5.27193C43.1556 4.58688 43.582 3.9668 44.2328 3.57112L47.9699 1.30574L47.977 1.29747L48.0053 1.28094L48.0124 1.27739C48.6514 0.905341 49.3896 0.817939 50.064 0.980933C50.7443 1.14511 51.362 1.56677 51.7518 2.20929L51.7589 2.21756L51.7754 2.24473L51.779 2.25181L63.6185 22.5859C63.9976 23.2379 64.0874 23.9855 63.9197 24.6682C63.7519 25.3545 63.3267 25.9734 62.6748 26.369L58.9389 28.6356L58.9306 28.6391L58.9023 28.6557L58.8952 28.6628C58.2574 29.0348 57.518 29.1222 56.8436 28.9592C56.1633 28.795 55.5467 28.3746 55.1558 27.7309L55.1487 27.7238L55.1322 27.6966L55.1286 27.6883L53.9121 25.5989L51.414 27.4887C51.8628 28.2777 52.04 29.1647 51.9798 30.0293C51.9337 30.7132 51.7388 31.3876 51.414 31.9888C51.0857 32.5971 50.6215 33.1356 50.0392 33.5431C49.4486 33.9553 48.747 34.2282 47.9533 34.299C47.6864 35.0467 47.2435 35.6833 46.6258 36.2101C45.9502 36.7853 45.0773 37.2129 44.006 37.4916C43.7722 38.3373 43.4037 39.046 42.8911 39.6058C42.2367 40.3204 41.3781 40.7692 40.2973 40.9287L39.8473 41.0338C36.8626 45.6082 33.1858 43.3429 29.9212 41.3314C29.6106 41.1401 29.3035 40.9511 29.007 40.7751ZM7.21425 26.1115L19.0479 5.78452C19.1707 5.5731 19.2002 5.33333 19.1471 5.11482C19.0963 4.90813 18.9687 4.72033 18.775 4.6034L15.0462 2.34156L15.045 2.34392L15.0167 2.32739H15.0179C14.8194 2.21518 14.5927 2.18801 14.386 2.2388C14.1852 2.28723 14.0045 2.40652 13.8923 2.58605L13.8946 2.58723L13.8781 2.6144L2.0433 22.9402C1.92046 23.1516 1.89093 23.3926 1.94408 23.6099C1.99487 23.8178 2.12243 24.0044 2.31731 24.1225L6.05436 26.3891H6.05318L6.06618 26.3961L6.06736 26.3938C6.26579 26.5107 6.4961 26.5379 6.70516 26.4871C6.90595 26.4387 7.08666 26.3194 7.19887 26.1398L7.19769 26.1387L7.21304 26.1115L7.21425 26.1115ZM46.4627 8.98772C46.536 9.06331 46.595 9.15071 46.6399 9.24638L47.5824 10.9094L56.7857 26.7186H56.7869L56.8022 26.7458L56.8011 26.7469C56.9133 26.9265 57.094 27.0458 57.2948 27.0942C57.5038 27.145 57.7341 27.1178 57.9326 27.0021L57.9338 27.0044L57.9467 26.9962H57.9456L61.6826 24.7296C61.8775 24.6127 62.0051 24.4249 62.0558 24.2182C62.109 23.9997 62.0795 23.7587 61.9566 23.5485L50.1218 3.22148L50.1053 3.19431L50.1077 3.19313C49.9955 3.0136 49.8147 2.89431 49.614 2.84588C49.4073 2.79627 49.1805 2.82226 48.9821 2.93447H48.9832L48.9549 2.95218L48.9537 2.94982L45.2249 5.21048C45.0312 5.32859 44.9037 5.51521 44.8529 5.72309C44.7997 5.94041 44.8292 6.18136 44.9521 6.39278L46.4627 8.98772Z"/></svg>