<svg type="fill" width="744" height="744" viewBox="0 0 744 744" fill="none"><path d="M350.617 168.472C373.269 164.972 396.48 167.646 417.711 176.225C438.949 184.806 457.434 198.988 471.066 217.291C484.703 235.601 492.934 257.305 494.766 280.011C496.597 302.717 491.951 325.446 481.389 345.663C470.834 365.874 454.806 382.748 435.163 394.491C429.954 397.603 424.294 400.523 419.737 402.874C418.429 403.551 417.211 404.18 416.12 404.751C410.543 407.683 406.92 409.826 404.237 411.934C401.814 413.834 400.771 415.248 400.171 416.426C399.594 417.566 398.66 420 398.66 425.028V460.843C398.66 470.311 390.983 477.986 381.517 477.986H358.66C349.191 477.986 341.517 470.311 341.517 460.843V425.028C341.517 412.406 343.983 400.866 349.229 390.54C354.457 380.248 361.666 372.706 368.949 366.988C375.966 361.477 383.494 357.343 389.546 354.166C391.411 353.186 393.12 352.303 394.714 351.48C398.874 349.331 402.303 347.557 405.84 345.443C416.549 339.043 425.137 329.937 430.74 319.208C436.34 308.486 438.769 296.517 437.809 284.606C436.846 272.691 432.523 261.206 425.237 251.423C417.946 241.634 407.954 233.914 396.303 229.206C384.649 224.496 371.849 223.012 359.343 224.944C346.837 226.877 335.197 232.135 325.689 240.056C320.703 244.21 316.411 249.006 312.906 254.275C307.663 262.157 298.117 267.206 289.134 264.214L267.449 256.99C258.466 253.999 253.506 244.217 257.731 235.745C265.291 220.591 275.969 207.106 289.111 196.155C306.671 181.524 327.963 171.972 350.617 168.472Z" fill="var( --dm-color-black )"/><path d="M346.603 539.894C346.603 532.006 353 525.608 360.889 525.608H379.392C387.28 525.608 393.677 532.006 393.677 539.894V558.397C393.677 566.285 387.28 572.683 379.392 572.683H360.889C353 572.683 346.603 566.285 346.603 558.397V539.894Z" fill="var( --dm-color-black )"/><path fill-rule="evenodd" clip-rule="evenodd" d="M372 0.571289C166.866 0.571289 0.571289 166.866 0.571289 372C0.571289 577.134 166.866 743.428 372 743.428C577.134 743.428 743.428 577.134 743.428 372C743.428 166.866 577.134 0.571289 372 0.571289ZM57.7141 372C57.7141 198.425 198.425 57.7141 372 57.7141C545.574 57.7141 686.286 198.425 686.286 372C686.286 545.574 545.574 686.286 372 686.286C198.425 686.286 57.7141 545.574 57.7141 372Z" fill="var( --dm-color-black )"/></svg>