<svg width="26" height="27" viewBox="0 0 26 27" fill="none" xmlns="http://www.w3.org/2000/svg">
<path d="M13 13.5H6.78824C5.99758 13.5 5.60224 13.5 5.30025 13.6514C5.03461 13.7846 4.81864 13.9969 4.68328 14.2583C4.52941 14.5554 4.52941 14.9443 4.52941 15.7222V19.0556M13 13.5H19.2118C20.0025 13.5 20.3978 13.5 20.6998 13.6514C20.9655 13.7846 21.1813 13.9969 21.3167 14.2583C21.4706 14.5554 21.4706 14.9443 21.4706 15.7222V19.0556M13 13.5V7.94444M11.7294 7.94444H14.2706C15.0613 7.94444 15.4566 7.94444 15.7586 7.79307C16.0243 7.6599 16.2401 7.44743 16.3755 7.1861C16.5294 6.889 16.5294 6.50007 16.5294 5.72222V3.22222C16.5294 2.44437 16.5294 2.05544 16.3755 1.75835C16.2401 1.49701 16.0243 1.28454 15.7586 1.15137C15.4566 1 15.0613 1 14.2706 1H11.7294C10.9387 1 10.5434 1 10.2414 1.15137C9.97579 1.28454 9.75982 1.49701 9.62446 1.75835C9.47059 2.05544 9.47059 2.44437 9.47059 3.22222V5.72222C9.47059 6.50007 9.47059 6.889 9.62446 7.1861C9.75982 7.44743 9.97579 7.6599 10.2414 7.79307C10.5434 7.94444 10.9387 7.94444 11.7294 7.94444ZM3.25882 26H5.8C6.59066 26 6.986 26 7.28799 25.8486C7.55362 25.7154 7.7696 25.5031 7.90496 25.2417C8.05882 24.9446 8.05882 24.5557 8.05882 23.7778V21.2778C8.05882 20.4999 8.05882 20.111 7.90496 19.8139C7.7696 19.5525 7.55362 19.3401 7.28799 19.2069C6.986 19.0556 6.59066 19.0556 5.8 19.0556H3.25882C2.46816 19.0556 2.07283 19.0556 1.77084 19.2069C1.5052 19.3401 1.28923 19.5525 1.15387 19.8139C1 20.111 1 20.4999 1 21.2778V23.7778C1 24.5557 1 24.9446 1.15387 25.2417C1.28923 25.5031 1.5052 25.7154 1.77084 25.8486C2.07283 26 2.46816 26 3.25882 26ZM20.2 26H22.7412C23.5319 26 23.9272 26 24.2292 25.8486C24.4949 25.7154 24.7107 25.5031 24.8461 25.2417C25 24.9446 25 24.5557 25 23.7778V21.2778C25 20.4999 25 20.111 24.8461 19.8139C24.7107 19.5525 24.4949 19.3401 24.2292 19.2069C23.9272 19.0556 23.5319 19.0556 22.7412 19.0556H20.2C19.4093 19.0556 19.014 19.0556 18.712 19.2069C18.4463 19.3401 18.2304 19.5525 18.0951 19.8139C17.9412 20.111 17.9412 20.4999 17.9412 21.2778V23.7778C17.9412 24.5557 17.9412 24.9446 18.0951 25.2417C18.2304 25.5031 18.4463 25.7154 18.712 25.8486C19.014 26 19.4093 26 20.2 26Z" stroke="#000" stroke-width="2" stroke-linecap="round" stroke-linejoin="round"/>
</svg>
